<svg id="visual" viewBox="0 0 960 540" width="960" height="540" xmlns="http://www.w3.org/2000/svg" xmlns:xlink="http://www.w3.org/1999/xlink" version="1.1"><rect x="0" y="0" width="960" height="540" fill="#ffffff"></rect><defs><linearGradient id="grad1_0" x1="43.8%" y1="0%" x2="100%" y2="100%"><stop offset="14.444444444444446%" stop-color="#fbc12d" stop-opacity="1"></stop><stop offset="85.55555555555554%" stop-color="#fbc12d" stop-opacity="1"></stop></linearGradient></defs><defs><linearGradient id="grad1_1" x1="43.8%" y1="0%" x2="100%" y2="100%"><stop offset="14.444444444444446%" stop-color="#fbc12d" stop-opacity="1"></stop><stop offset="85.55555555555554%" stop-color="#ffdf9c" stop-opacity="1"></stop></linearGradient></defs><defs><linearGradient id="grad1_2" x1="43.8%" y1="0%" x2="100%" y2="100%"><stop offset="14.444444444444446%" stop-color="#ffffff" stop-opacity="1"></stop><stop offset="85.55555555555554%" stop-color="#ffdf9c" stop-opacity="1"></stop></linearGradient></defs><defs><linearGradient id="grad2_0" x1="0%" y1="0%" x2="56.3%" y2="100%"><stop offset="14.444444444444446%" stop-color="#fbc12d" stop-opacity="1"></stop><stop offset="85.55555555555554%" stop-color="#fbc12d" stop-opacity="1"></stop></linearGradient></defs><defs><linearGradient id="grad2_1" x1="0%" y1="0%" x2="56.3%" y2="100%"><stop offset="14.444444444444446%" stop-color="#ffdf9c" stop-opacity="1"></stop><stop offset="85.55555555555554%" stop-color="#fbc12d" stop-opacity="1"></stop></linearGradient></defs><defs><linearGradient id="grad2_2" x1="0%" y1="0%" x2="56.3%" y2="100%"><stop offset="14.444444444444446%" stop-color="#ffdf9c" stop-opacity="1"></stop><stop offset="85.55555555555554%" stop-color="#ffffff" stop-opacity="1"></stop></linearGradient></defs><g transform="translate(960, 0)"><path d="M0 432C-28.3 377.2 -56.7 322.5 -101.7 312.9C-146.7 303.3 -208.4 338.9 -235.1 323.6C-261.9 308.3 -253.7 242.1 -283.2 205.7C-312.6 169.4 -379.8 162.8 -410.9 133.5C-441.9 104.2 -437 52.1 -432 0L0 0Z" fill="#ffefcd"></path><path d="M0 288C-18.9 251.5 -37.8 215 -67.8 208.6C-97.8 202.2 -138.9 225.9 -156.7 215.7C-174.6 205.5 -169.1 161.4 -188.8 137.1C-208.4 112.9 -253.2 108.5 -273.9 89C-294.6 69.5 -291.3 34.7 -288 0L0 0Z" fill="#ffd06a"></path><path d="M0 144C-9.4 125.7 -18.9 107.5 -33.9 104.3C-48.9 101.1 -69.5 113 -78.4 107.9C-87.3 102.8 -84.6 80.7 -94.4 68.6C-104.2 56.5 -126.6 54.3 -137 44.5C-147.3 34.7 -145.7 17.4 -144 0L0 0Z" fill="#fbc12d"></path></g><g transform="translate(0, 540)"><path d="M0 -432C35.6 -401.3 71.1 -370.7 118 -363.3C164.9 -356 223.2 -371.9 253.9 -349.5C284.7 -327.1 288 -266.2 309.9 -225.1C331.7 -184.1 372.2 -162.8 395.6 -128.6C419.1 -94.3 425.5 -47.2 432 0L0 0Z" fill="#ffefcd"></path><path d="M0 -288C23.7 -267.6 47.4 -247.1 78.7 -242.2C110 -237.3 148.8 -248 169.3 -233C189.8 -218 192 -177.5 206.6 -150.1C221.2 -122.7 248.1 -108.5 263.8 -85.7C279.4 -62.9 283.7 -31.4 288 0L0 0Z" fill="#ffd06a"></path><path d="M0 -144C11.9 -133.8 23.7 -123.6 39.3 -121.1C55 -118.7 74.4 -124 84.6 -116.5C94.9 -109 96 -88.7 103.3 -75C110.6 -61.4 124.1 -54.3 131.9 -42.9C139.7 -31.4 141.8 -15.7 144 0L0 0Z" fill="#fbc12d"></path></g></svg>