<svg id="visual" viewBox="0 0 900 300" width="900" height="300" xmlns="http://www.w3.org/2000/svg" xmlns:xlink="http://www.w3.org/1999/xlink" version="1.1"><rect x="0" y="0" width="900" height="300" fill="#ffffff"></rect><g transform="translate(460.92192270384083 170.04068349107007)"><path d="M101.3 -136.1C115.1 -109.1 99.1 -61.9 109.7 -17.1C120.4 27.7 157.6 70.1 150.1 90.1C142.7 110.1 90.5 107.7 50 110.8C9.6 114 -19.2 122.8 -56.4 123.1C-93.7 123.4 -139.5 115.2 -159.9 88.3C-180.3 61.3 -175.4 15.6 -154.6 -14.3C-133.9 -44.3 -97.5 -58.5 -69.1 -83C-40.7 -107.5 -20.4 -142.3 11.7 -156.2C43.7 -170.1 87.4 -163.2 101.3 -136.1" fill="#ffd756"></path></g></svg>