<svg id="visual" viewBox="0 0 2000 3000" width="2000" height="3000" xmlns="http://www.w3.org/2000/svg" xmlns:xlink="http://www.w3.org/1999/xlink" version="1.1"><g><g transform="translate(657 2542)"><path d="M285.5 -207.9C354.3 -141.5 383.4 -23.7 357.9 79.1C332.4 181.9 252.2 269.6 159.8 303.1C67.4 336.6 -37.4 315.8 -139.6 273.1C-241.8 230.3 -341.5 165.5 -372.3 72.8C-403.1 -19.8 -365.1 -140.3 -291.5 -207.8C-218 -275.2 -109 -289.6 -0.3 -289.4C108.4 -289.1 216.8 -274.2 285.5 -207.9Z" fill="#f4da98"></path></g><g transform="translate(655 1470)"><path d="M205.3 -148.7C277.3 -73.4 354.8 12.6 349.1 96.5C343.3 180.4 254.5 262.1 150.6 311.7C46.8 361.2 -71.9 378.6 -147.8 332.3C-223.6 286 -256.5 176 -257.9 83.6C-259.3 -8.9 -229.2 -83.8 -180.9 -153.7C-132.7 -223.5 -66.3 -288.4 0.2 -288.5C66.6 -288.6 133.3 -224 205.3 -148.7Z" fill="#f4da98"></path></g><g transform="translate(299 178)"><path d="M207 -158C271.8 -83.9 330.1 2.4 316.3 76C302.5 149.5 216.6 210.4 129.9 241.2C43.2 272 -44.3 272.8 -131.2 242.4C-218.1 212.1 -304.5 150.6 -327.4 69.3C-350.3 -12.1 -309.8 -113.4 -244.6 -187.6C-179.5 -261.7 -89.7 -308.7 -9.3 -301.3C71.2 -293.9 142.3 -232.1 207 -158Z" fill="#f4da98"></path></g><g transform="translate(1795 1979)"><path d="M268.8 -218.6C324.6 -144.3 329.7 -33.9 293.8 44.5C257.9 122.9 180.9 169.3 99.8 209C18.8 248.7 -66.4 281.7 -147.8 260.4C-229.1 239 -306.7 163.4 -332.2 70.5C-357.7 -22.5 -331.1 -132.6 -267 -208.8C-203 -285 -101.5 -327.1 2.5 -329.1C106.5 -331.1 212.9 -292.9 268.8 -218.6Z" fill="#f4da98"></path></g><g transform="translate(1949 667)"><path d="M185.8 -151.8C227.6 -95.8 239.2 -19.3 220.1 44.4C200.9 108 150.9 158.8 90 189.1C29 219.3 -43 229 -87.9 200.5C-132.9 171.9 -150.9 105.2 -169.5 35.3C-188.2 -34.6 -207.5 -107.7 -179.3 -160.7C-151.2 -213.6 -75.6 -246.3 -1.8 -244.9C72 -243.5 144 -207.9 185.8 -151.8Z" fill="#f4da98"></path></g><g transform="translate(1846 2916)"><path d="M231.2 -199.7C272.5 -132.7 260 -38.1 236.8 50.3C213.7 138.7 179.8 220.9 121.2 247.6C62.6 274.2 -20.9 245.4 -81.4 203.1C-142 160.9 -179.8 105.3 -201 38.4C-222.2 -28.4 -226.8 -106.5 -190.6 -172.4C-154.3 -238.3 -77.1 -292 8.9 -299.1C95 -306.2 190 -266.7 231.2 -199.7Z" fill="#f4da98"></path></g></g></svg>