<svg id="visual" viewBox="0 0 1240 300" width="1240" height="300" xmlns="http://www.w3.org/2000/svg" xmlns:xlink="http://www.w3.org/1999/xlink" version="1.1"><rect x="0" y="0" width="1240" height="300" fill="#ffffff"></rect><path d="M0 206L17.2 210.3C34.3 214.7 68.7 223.3 103.2 222.2C137.7 221 172.3 210 206.8 211C241.3 212 275.7 225 310 226.8C344.3 228.7 378.7 219.3 413.2 214.3C447.7 209.3 482.3 208.7 516.8 207.5C551.3 206.3 585.7 204.7 620 207.7C654.3 210.7 688.7 218.3 723.2 219C757.7 219.7 792.3 213.3 826.8 210.8C861.3 208.3 895.7 209.7 930 217.5C964.3 225.3 998.7 239.7 1033.2 243.8C1067.7 248 1102.3 242 1136.8 239.2C1171.3 236.3 1205.7 236.7 1222.8 236.8L1240 237L1240 301L1222.8 301C1205.7 301 1171.3 301 1136.8 301C1102.3 301 1067.7 301 1033.2 301C998.7 301 964.3 301 930 301C895.7 301 861.3 301 826.8 301C792.3 301 757.7 301 723.2 301C688.7 301 654.3 301 620 301C585.7 301 551.3 301 516.8 301C482.3 301 447.7 301 413.2 301C378.7 301 344.3 301 310 301C275.7 301 241.3 301 206.8 301C172.3 301 137.7 301 103.2 301C68.7 301 34.3 301 17.2 301L0 301Z" fill="#f95252"></path><path d="M0 235L17.2 236.2C34.3 237.3 68.7 239.7 103.2 242.5C137.7 245.3 172.3 248.7 206.8 248.5C241.3 248.3 275.7 244.7 310 243.2C344.3 241.7 378.7 242.3 413.2 240.3C447.7 238.3 482.3 233.7 516.8 232.3C551.3 231 585.7 233 620 235.5C654.3 238 688.7 241 723.2 239.8C757.7 238.7 792.3 233.3 826.8 230.3C861.3 227.3 895.7 226.7 930 232.3C964.3 238 998.7 250 1033.2 254.8C1067.7 259.7 1102.3 257.3 1136.8 250C1171.3 242.7 1205.7 230.3 1222.8 224.2L1240 218L1240 301L1222.8 301C1205.7 301 1171.3 301 1136.8 301C1102.3 301 1067.7 301 1033.2 301C998.7 301 964.3 301 930 301C895.7 301 861.3 301 826.8 301C792.3 301 757.7 301 723.2 301C688.7 301 654.3 301 620 301C585.7 301 551.3 301 516.8 301C482.3 301 447.7 301 413.2 301C378.7 301 344.3 301 310 301C275.7 301 241.3 301 206.8 301C172.3 301 137.7 301 103.2 301C68.7 301 34.3 301 17.2 301L0 301Z" fill="#fa634e"></path><path d="M0 266L17.2 263C34.3 260 68.7 254 103.2 247.7C137.7 241.3 172.3 234.7 206.8 235.2C241.3 235.7 275.7 243.3 310 244C344.3 244.7 378.7 238.3 413.2 236C447.7 233.7 482.3 235.3 516.8 239.8C551.3 244.3 585.7 251.7 620 252.5C654.3 253.3 688.7 247.7 723.2 246.7C757.7 245.7 792.3 249.3 826.8 253C861.3 256.7 895.7 260.3 930 259.5C964.3 258.7 998.7 253.3 1033.2 250.5C1067.7 247.7 1102.3 247.3 1136.8 247.2C1171.3 247 1205.7 247 1222.8 247L1240 247L1240 301L1222.8 301C1205.7 301 1171.3 301 1136.8 301C1102.3 301 1067.7 301 1033.2 301C998.7 301 964.3 301 930 301C895.7 301 861.3 301 826.8 301C792.3 301 757.7 301 723.2 301C688.7 301 654.3 301 620 301C585.7 301 551.3 301 516.8 301C482.3 301 447.7 301 413.2 301C378.7 301 344.3 301 310 301C275.7 301 241.3 301 206.8 301C172.3 301 137.7 301 103.2 301C68.7 301 34.3 301 17.2 301L0 301Z" fill="#fb734c"></path><path d="M0 269L17.2 269.2C34.3 269.3 68.7 269.7 103.2 270C137.7 270.3 172.3 270.7 206.8 266.2C241.3 261.7 275.7 252.3 310 252.8C344.3 253.3 378.7 263.7 413.2 266.7C447.7 269.7 482.3 265.3 516.8 265C551.3 264.7 585.7 268.3 620 267.8C654.3 267.3 688.7 262.7 723.2 262.8C757.7 263 792.3 268 826.8 265.5C861.3 263 895.7 253 930 249.8C964.3 246.7 998.7 250.3 1033.2 254.5C1067.7 258.7 1102.3 263.3 1136.8 266.2C1171.3 269 1205.7 270 1222.8 270.5L1240 271L1240 301L1222.8 301C1205.7 301 1171.3 301 1136.8 301C1102.3 301 1067.7 301 1033.2 301C998.7 301 964.3 301 930 301C895.7 301 861.3 301 826.8 301C792.3 301 757.7 301 723.2 301C688.7 301 654.3 301 620 301C585.7 301 551.3 301 516.8 301C482.3 301 447.7 301 413.2 301C378.7 301 344.3 301 310 301C275.7 301 241.3 301 206.8 301C172.3 301 137.7 301 103.2 301C68.7 301 34.3 301 17.2 301L0 301Z" fill="#fb834c"></path><path d="M0 282L17.2 278.7C34.3 275.3 68.7 268.7 103.2 265C137.7 261.3 172.3 260.7 206.8 260.3C241.3 260 275.7 260 310 263.8C344.3 267.7 378.7 275.3 413.2 278.8C447.7 282.3 482.3 281.7 516.8 280.2C551.3 278.7 585.7 276.3 620 276.3C654.3 276.3 688.7 278.7 723.2 279.8C757.7 281 792.3 281 826.8 281.3C861.3 281.7 895.7 282.3 930 279.2C964.3 276 998.7 269 1033.2 268.2C1067.7 267.3 1102.3 272.7 1136.8 276.3C1171.3 280 1205.7 282 1222.8 283L1240 284L1240 301L1222.8 301C1205.7 301 1171.3 301 1136.8 301C1102.3 301 1067.7 301 1033.2 301C998.7 301 964.3 301 930 301C895.7 301 861.3 301 826.8 301C792.3 301 757.7 301 723.2 301C688.7 301 654.3 301 620 301C585.7 301 551.3 301 516.8 301C482.3 301 447.7 301 413.2 301C378.7 301 344.3 301 310 301C275.7 301 241.3 301 206.8 301C172.3 301 137.7 301 103.2 301C68.7 301 34.3 301 17.2 301L0 301Z" fill="#fa914e"></path><path d="M0 282L17.2 281.8C34.3 281.7 68.7 281.3 103.2 283C137.7 284.7 172.3 288.3 206.8 288C241.3 287.7 275.7 283.3 310 280C344.3 276.7 378.7 274.3 413.2 274C447.7 273.7 482.3 275.3 516.8 278.7C551.3 282 585.7 287 620 289.3C654.3 291.7 688.7 291.3 723.2 289.2C757.7 287 792.3 283 826.8 282.8C861.3 282.7 895.7 286.3 930 287.5C964.3 288.7 998.7 287.3 1033.2 287.5C1067.7 287.7 1102.3 289.3 1136.8 287.3C1171.3 285.3 1205.7 279.7 1222.8 276.8L1240 274L1240 301L1222.8 301C1205.7 301 1171.3 301 1136.8 301C1102.3 301 1067.7 301 1033.2 301C998.7 301 964.3 301 930 301C895.7 301 861.3 301 826.8 301C792.3 301 757.7 301 723.2 301C688.7 301 654.3 301 620 301C585.7 301 551.3 301 516.8 301C482.3 301 447.7 301 413.2 301C378.7 301 344.3 301 310 301C275.7 301 241.3 301 206.8 301C172.3 301 137.7 301 103.2 301C68.7 301 34.3 301 17.2 301L0 301Z" fill="#f99f52"></path></svg>